<svg xmlns="http://www.w3.org/2000/svg" viewBox="0 0 800 600">
  <!-- Title -->
  <text x="400" y="30" font-family="Arial" font-size="24" text-anchor="middle" font-weight="bold">GymTracker Pro: Authentication Flow</text>
  <text x="400" y="60" font-family="Arial" font-size="16" text-anchor="middle">Week of 3/23 - 3/30</text>
  
  <!-- Start Node -->
  <circle cx="400" cy="100" r="30" fill="#e8f5e9" stroke="#388e3c" stroke-width="2"/>
  <text x="400" y="105" font-family="Arial" font-size="14" text-anchor="middle">Start</text>
  
  <!-- App Launch -->
  <rect x="325" y="150" width="150" height="50" fill="#e3f2fd" stroke="#1976d2" stroke-width="2" rx="10"/>
  <text x="400" y="180" font-family="Arial" font-size="14" text-anchor="middle">App Launch</text>
  
  <!-- Auth Check Decision -->
  <polygon points="400,230 450,280 400,330 350,280" fill="#fff3e0" stroke="#f57c00" stroke-width="2"/>
  <text x="400" y="285" font-family="Arial" font-size="14" text-anchor="middle">User</text>
  <text x="400" y="305" font-family="Arial" font-size="14" text-anchor="middle">Authenticated?</text>
  
  <!-- Welcome Screen -->
  <rect x="100" y="255" width="150" height="50" fill="#e3f2fd" stroke="#1976d2" stroke-width="2" rx="10"/>
  <text x="175" y="285" font-family="Arial" font-size="14" text-anchor="middle">Welcome Screen</text>
  
  <!-- Home Screen -->
  <rect x="550" y="255" width="150" height="50" fill="#e3f2fd" stroke="#1976d2" stroke-width="2" rx="10"/>
  <text x="625" y="285" font-family="Arial" font-size="14" text-anchor="middle">Home Screen</text>
  
  <!-- Auth Options Decision -->
  <polygon points="175,350 225,400 175,450 125,400" fill="#fff3e0" stroke="#f57c00" stroke-width="2"/>
  <text x="175" y="405" font-family="Arial" font-size="14" text-anchor="middle">Authentication</text>
  <text x="175" y="425" font-family="Arial" font-size="14" text-anchor="middle">Option</text>
  
  <!-- Sign Up -->
  <rect x="50" y="480" width="100" height="50" fill="#e3f2fd" stroke="#1976d2" stroke-width="2" rx="10"/>
  <text x="100" y="510" font-family="Arial" font-size="14" text-anchor="middle">Sign Up</text>
  
  <!-- Sign In -->
  <rect x="175" y="480" width="100" height="50" fill="#e3f2fd" stroke="#1976d2" stroke-width="2" rx="10"/>
  <text x="225" y="510" font-family="Arial" font-size="14" text-anchor="middle">Sign In</text>
  
  <!-- Social Auth -->
  <rect x="300" y="480" width="100" height="50" fill="#e3f2fd" stroke="#1976d2" stroke-width="2" rx="10"/>
  <text x="350" y="510" font-family="Arial" font-size="14" text-anchor="middle">Social Auth</text>
  
  <!-- Guest Mode -->
  <rect x="425" y="480" width="100" height="50" fill="#e3f2fd" stroke="#1976d2" stroke-width="2" rx="10"/>
  <text x="475" y="510" font-family="Arial" font-size="14" text-anchor="middle">Guest Mode</text>
  
  <!-- Data Sync -->
  <rect x="550" y="380" width="150" height="50" fill="#e8f5e9" stroke="#388e3c" stroke-width="2" rx="10"/>
  <text x="625" y="410" font-family="Arial" font-size="14" text-anchor="middle">Data Synchronization</text>
  
  <!-- Connect Arrows -->
  <!-- Start to App Launch -->
  <line x1="400" y1="130" x2="400" y2="150" stroke="#333" stroke-width="2" marker-end="url(#arrowhead)"/>
  
  <!-- App Launch to Auth Check -->
  <line x1="400" y1="200" x2="400" y2="230" stroke="#333" stroke-width="2" marker-end="url(#arrowhead)"/>
  
  <!-- Auth Check to Welcome (No) -->
  <line x1="350" y1="280" x2="250" y2="280" stroke="#333" stroke-width="2" marker-end="url(#arrowhead)"/>
  <text x="320" y="270" font-family="Arial" font-size="12" text-anchor="middle">No</text>
  
  <!-- Auth Check to Home (Yes) -->
  <line x1="450" y1="280" x2="550" y2="280" stroke="#333" stroke-width="2" marker-end="url(#arrowhead)"/>
  <text x="480" y="270" font-family="Arial" font-size="12" text-anchor="middle">Yes</text>
  
  <!-- Welcome to Auth Options -->
  <line x1="175" y1="305" x2="175" y2="350" stroke="#333" stroke-width="2" marker-end="url(#arrowhead)"/>
  
  <!-- Auth Options to Sign Up -->
  <line x1="139" y1="408" x2="100" y2="480" stroke="#333" stroke-width="2" marker-end="url(#arrowhead)"/>
  <text x="110" y="450" font-family="Arial" font-size="12" text-anchor="middle">Sign Up</text>
  
  <!-- Auth Options to Sign In -->
  <line x1="175" y1="450" x2="225" y2="480" stroke="#333" stroke-width="2" marker-end="url(#arrowhead)"/>
  <text x="180" y="470" font-family="Arial" font-size="12" text-anchor="middle">Sign In</text>
  
  <!-- Auth Options to Social Auth -->
  <line x1="211" y1="408" x2="350" y2="480" stroke="#333" stroke-width="2" marker-end="url(#arrowhead)"/>
  <text x="290" y="450" font-family="Arial" font-size="12" text-anchor="middle">Social</text>
  
  <!-- Auth Options to Guest Mode -->
  <line x1="225" y1="400" x2="475" y2="480" stroke="#333" stroke-width="2" marker-end="url(#arrowhead)"/>
  <text x="370" y="450" font-family="Arial" font-size="12" text-anchor="middle">Guest Mode</text>
  
  <!-- Sign Up to Home -->
  <path d="M 100 530 C 100 560 700 560 625 305" stroke="#333" stroke-width="2" fill="none" marker-end="url(#arrowhead)"/>
  
  <!-- Sign In to Home -->
  <path d="M 225 530 C 225 550 680 550 625 305" stroke="#333" stroke-width="2" fill="none" marker-end="url(#arrowhead)"/>
  
  <!-- Social Auth to Home -->
  <path d="M 350 530 C 350 540 660 540 625 305" stroke="#333" stroke-width="2" fill="none" marker-end="url(#arrowhead)"/>
  
  <!-- Guest Mode to Home -->
  <path d="M 475 530 C 475 530 640 530 625 305" stroke="#333" stroke-width="2" fill="none" marker-end="url(#arrowhead)"/>
  
  <!-- Home to Data Sync -->
  <line x1="625" y1="305" x2="625" y2="380" stroke="#333" stroke-width="2" marker-end="url(#arrowhead)"/>
  
  <!-- Arrow Head Definition -->
  <defs>
    <marker id="arrowhead" markerWidth="10" markerHeight="7" refX="10" refY="3.5" orient="auto">
      <polygon points="0 0, 10 3.5, 0 7" fill="#333"/>
    </marker>
  </defs>
  
  <!-- Legend -->
  <rect x="600" y="50" width="150" height="100" fill="#ffffff" stroke="#333" stroke-width="1" rx="5"/>
  <text x="675" y="70" font-family="Arial" font-size="14" text-anchor="middle" font-weight="bold">Legend</text>
  
  <rect x="620" y="80" width="20" height="20" fill="#e3f2fd" stroke="#1976d2" stroke-width="2" rx="3"/>
  <text x="680" y="95" font-family="Arial" font-size="12" text-anchor="start">UI Screen</text>
  
  <rect x="620" y="110" width="20" height="20" fill="#e8f5e9" stroke="#388e3c" stroke-width="2" rx="3"/>
  <text x="680" y="125" font-family="Arial" font-size="12" text-anchor="start">Process</text>
  
  <polygon points="620,135 640,130 620,145" fill="#fff3e0" stroke="#f57c00" stroke-width="2"/>
  <text x="680" y="140" font-family="Arial" font-size="12" text-anchor="start">Decision</text>
</svg>