<svg xmlns="http://www.w3.org/2000/svg" viewBox="0 0 800 600">
  <!-- Title -->
  <text x="400" y="30" font-family="Arial" font-size="24" text-anchor="middle" font-weight="bold">GymTracker Pro: Firebase Integration</text>
  <text x="400" y="60" font-family="Arial" font-size="16" text-anchor="middle">Week of 3/23 - 3/30</text>
  
  <!-- App Container -->
  <rect x="50" y="100" width="700" height="450" fill="#f5f5f5" stroke="#333" stroke-width="2" rx="10"/>
  
  <!-- UI Layer -->
  <rect x="80" y="130" width="320" height="200" fill="#e3f2fd" stroke="#1976d2" stroke-width="2" rx="5"/>
  <text x="240" y="150" font-family="Arial" font-size="18" text-anchor="middle" fill="#1976d2" font-weight="bold">UI Layer (Extended)</text>
  
  <!-- UI Components -->
  <rect x="100" y="170" width="110" height="40" fill="#bbdefb" stroke="#1976d2" stroke-width="1" rx="5"/>
  <text x="155" y="195" font-family="Arial" font-size="14" text-anchor="middle">Existing Screens</text>
  
  <!-- New Auth UI Components with "NEW" badge -->
  <rect x="100" y="220" width="120" height="40" fill="#90caf9" stroke="#1976d2" stroke-width="1" rx="5"/>
  <text x="160" y="245" font-family="Arial" font-size="14" text-anchor="middle">Welcome Screen</text>
  <rect x="230" y="220" width="30" height="16" fill="#f44336" rx="8"/>
  <text x="245" y="232" font-family="Arial" font-size="10" text-anchor="middle" fill="white">NEW</text>
  
  <rect x="100" y="270" width="120" height="40" fill="#90caf9" stroke="#1976d2" stroke-width="1" rx="5"/>
  <text x="160" y="295" font-family="Arial" font-size="14" text-anchor="middle">Sign In Screen</text>
  <rect x="230" y="270" width="30" height="16" fill="#f44336" rx="8"/>
  <text x="245" y="282" font-family="Arial" font-size="10" text-anchor="middle" fill="white">NEW</text>
  
  <rect x="240" y="220" width="120" height="40" fill="#90caf9" stroke="#1976d2" stroke-width="1" rx="5"/>
  <text x="300" y="245" font-family="Arial" font-size="14" text-anchor="middle">Sign Up Screen</text>
  <rect x="370" y="220" width="30" height="16" fill="#f44336" rx="8"/>
  <text x="385" y="232" font-family="Arial" font-size="10" text-anchor="middle" fill="white">NEW</text>
  
  <rect x="240" y="270" width="120" height="40" fill="#90caf9" stroke="#1976d2" stroke-width="1" rx="5"/>
  <text x="300" y="295" font-family="Arial" font-size="14" text-anchor="middle">Account Screen</text>
  <rect x="370" y="270" width="30" height="16" fill="#f44336" rx="8"/>
  <text x="385" y="282" font-family="Arial" font-size="10" text-anchor="middle" fill="white">NEW</text>
  
  <!-- Services Layer -->
  <rect x="80" y="340" width="320" height="190" fill="#e8f5e9" stroke="#388e3c" stroke-width="2" rx="5"/>
  <text x="240" y="360" font-family="Arial" font-size="18" text-anchor="middle" fill="#388e3c" font-weight="bold">Services Layer (Enhanced)</text>
  
  <!-- Service Components -->
  <rect x="100" y="380" width="130" height="40" fill="#c8e6c9" stroke="#388e3c" stroke-width="1" rx="5"/>
  <text x="165" y="405" font-family="Arial" font-size="14" text-anchor="middle">Subscription Service</text>
  <text x="165" y="420" font-family="Arial" font-size="10" text-anchor="middle" fill="#388e3c">(Updated)</text>
  
  <!-- New Auth Service with "NEW" badge -->
  <rect x="240" y="380" width="130" height="40" fill="#a5d6a7" stroke="#388e3c" stroke-width="1" rx="5"/>
  <text x="305" y="405" font-family="Arial" font-size="14" text-anchor="middle">Auth Service</text>
  <rect x="330" y="365" width="30" height="16" fill="#f44336" rx="8"/>
  <text x="345" y="377" font-family="Arial" font-size="10" text-anchor="middle" fill="white">NEW</text>
  
  <!-- New Sync Service with "NEW" badge -->
  <rect x="170" y="440" width="130" height="40" fill="#a5d6a7" stroke="#388e3c" stroke-width="1" rx="5"/>
  <text x="235" y="465" font-family="Arial" font-size="14" text-anchor="middle">Sync Service</text>
  <rect x="260" y="425" width="30" height="16" fill="#f44336" rx="8"/>
  <text x="275" y="437" font-family="Arial" font-size="10" text-anchor="middle" fill="white">NEW</text>
  
  <!-- Firebase Backend -->
  <rect x="420" y="130" width="320" height="400" fill="#ffecb3" stroke="#ffa000" stroke-width="2" rx="5"/>
  <text x="580" y="150" font-family="Arial" font-size="18" text-anchor="middle" fill="#ffa000" font-weight="bold">Firebase Backend</text>
  
  <!-- Firebase Components -->
  <rect x="440" y="170" width="280" height="60" fill="#ffe082" stroke="#ffa000" stroke-width="1" rx="5"/>
  <text x="580" y="195" font-family="Arial" font-size="16" text-anchor="middle" fill="#ffa000">Firebase Authentication</text>
  <text x="580" y="215" font-family="Arial" font-size="12" text-anchor="middle">Email/Password, Google, Apple, Anonymous</text>
  
  <rect x="440" y="250" width="280" height="100" fill="#ffe082" stroke="#ffa000" stroke-width="1" rx="5"/>
  <text x="580" y="275" font-family="Arial" font-size="16" text-anchor="middle" fill="#ffa000">Cloud Firestore</text>
  <text x="580" y="295" font-family="Arial" font-size="12" text-anchor="middle">Users Collection</text>
  <text x="580" y="315" font-family="Arial" font-size="12" text-anchor="middle">Workouts Collection</text>
  <text x="580" y="335" font-family="Arial" font-size="12" text-anchor="middle">Security Rules</text>
  
  <rect x="440" y="370" width="280" height="60" fill="#ffe082" stroke="#ffa000" stroke-width="1" rx="5"/>
  <text x="580" y="395" font-family="Arial" font-size="16" text-anchor="middle" fill="#ffa000">Firebase Analytics</text>
  <text x="580" y="415" font-family="Arial" font-size="12" text-anchor="middle">User Engagement & Conversion Tracking</text>
  
  <rect x="440" y="450" width="280" height="60" fill="#ffe082" stroke="#ffa000" stroke-width="1" rx="5"/>
  <text x="580" y="475" font-family="Arial" font-size="16" text-anchor="middle" fill="#ffa000">Cloud Functions (Future)</text>
  <text x="580" y="495" font-family="Arial" font-size="12" text-anchor="middle">Subscription Management & Data Validation</text>
  
  <!-- Connections -->
  <line x1="320" y1="220" x2="440" y2="200" stroke="#333" stroke-width="2" stroke-dasharray="5,5"/>
  <line x1="320" y1="290" x2="440" y2="200" stroke="#333" stroke-width="2" stroke-dasharray="5,5"/>
  <line x1="370" y1="400" x2="440" y2="200" stroke="#333" stroke-width="2" stroke-dasharray="5,5"/>
  <line x1="300" y1="440" x2="440" y2="300" stroke="#333" stroke-width="2" stroke-dasharray="5,5"/>
  <line x1="230" y1="380" x2="440" y2="300" stroke="#333" stroke-width="2" stroke-dasharray="5,5"/>
  
  <!-- Benefits -->
  <rect x="80" y="540" width="640" height="30" fill="#e8eaf6" stroke="#3f51b5" stroke-width="1" rx="5"/>
  <text x="400" y="560" font-family="Arial" font-size="14" text-anchor="middle" fill="#3f51b5">Benefits: Cross-device sync, User accounts, Cloud-based subscriptions, Offline support</text>

  <!-- Authentication Status -->
  <rect x="680" y="100" width="20" height="20" fill="#c8e6c9" stroke="#388e3c" stroke-width="1"/>
  <text x="710" y="114" font-family="Arial" font-size="14" text-anchor="start" fill="#388e3c">With Auth</text>
</svg>